<svg width="600" height="60" viewBox="0 0 600 60" fill="none" xmlns="http://www.w3.org/2000/svg">
<path d="M11 26.5287C10.5875 26.7142 10.1521 26.8302 9.69375 26.8998C10.1521 26.6215 10.5188 26.1807 10.6792 25.6472C10.2437 25.9024 9.7625 26.088 9.23542 26.2039C8.82292 25.7632 8.22708 25.4849 7.58542 25.4849C6.34792 25.4849 5.33958 26.5055 5.33958 27.7581C5.33958 27.9436 5.3625 28.106 5.40833 28.2684C3.55208 28.1756 1.87917 27.2709 0.75625 25.8792C0.572917 26.2271 0.458333 26.5983 0.458333 27.0158C0.458333 27.8045 0.847917 28.5003 1.46667 28.9179C1.1 28.8947 0.75625 28.8019 0.435417 28.6395V28.6627C0.435417 29.7761 1.21458 30.7039 2.24583 30.9127C2.0625 30.9591 1.85625 30.9823 1.65 30.9823C1.5125 30.9823 1.35208 30.9591 1.21458 30.9359C1.5125 31.8405 2.3375 32.5132 3.32292 32.5132C2.54375 33.1163 1.58125 33.4874 0.527083 33.4874C0.34375 33.4874 0.160417 33.4874 0 33.4642C1.00833 34.1137 2.17708 34.4849 3.46042 34.4849C7.60833 34.4849 9.87708 31.0055 9.87708 27.99C9.87708 27.8972 9.87708 27.7813 9.87708 27.6885C10.3125 27.3869 10.7021 26.9926 11 26.5287Z" fill="white"/>
<path d="M40.7735 36.4849V30.555H39V28.244H40.7735V26.5397C40.7735 24.5618 41.8471 23.4849 43.4152 23.4849C44.1663 23.4849 44.8119 23.5478 45 23.5759V25.6429L43.9125 25.6434C43.0597 25.6434 42.8945 26.0994 42.8945 26.7685V28.244H44.9284L44.6636 30.555H42.8945V36.4849H40.7735Z" fill="white"/>
<path d="M79.5 24.2461C81.2355 24.2461 81.441 24.2531 82.1266 24.2868C82.5388 24.2922 82.9471 24.3737 83.3338 24.5278C83.6141 24.6442 83.8688 24.8226 84.0813 25.0514C84.2938 25.2803 84.4594 25.5545 84.5675 25.8564C84.7106 26.2727 84.7863 26.7124 84.7913 27.1563C84.8223 27.8946 84.8291 28.116 84.8291 29.9849C84.8291 31.8538 84.8226 32.0751 84.7913 32.8134C84.7863 33.2573 84.7106 33.697 84.5675 34.1133C84.4594 34.4153 84.2938 34.6895 84.0813 34.9183C83.8688 35.1471 83.6141 35.3255 83.3338 35.4419C82.9471 35.596 82.5388 35.6775 82.1266 35.6829C81.4413 35.7163 81.2358 35.7236 79.5 35.7236C77.7642 35.7236 77.5587 35.7166 76.8734 35.6829C76.4612 35.6775 76.0529 35.596 75.6662 35.4419C75.3859 35.3255 75.1312 35.1471 74.9187 34.9183C74.7062 34.6895 74.5406 34.4153 74.4325 34.1133C74.2894 33.697 74.2137 33.2573 74.2087 32.8134C74.1777 32.0751 74.1709 31.8538 74.1709 29.9849C74.1709 28.116 74.1774 27.8946 74.2087 27.1563C74.2137 26.7124 74.2894 26.2727 74.4325 25.8564C74.5406 25.5545 74.7062 25.2803 74.9187 25.0514C75.1312 24.8226 75.3859 24.6442 75.6662 24.5278C76.0529 24.3737 76.4612 24.2922 76.8734 24.2868C77.559 24.2535 77.7645 24.2461 79.5 24.2461ZM79.5 22.9849C77.7357 22.9849 77.5135 22.9929 76.8201 23.0269C76.2807 23.0384 75.7469 23.1484 75.2416 23.3522C74.8081 23.5281 74.4155 23.8037 74.0911 24.1598C73.7601 24.5092 73.5039 24.9323 73.3405 25.3994C73.1513 25.9436 73.0491 26.5184 73.0384 27.0993C73.0074 27.8453 73 28.0846 73 29.9845C73 31.8844 73.0074 32.1238 73.039 32.8704C73.0497 33.4513 73.1519 34.0261 73.3411 34.5703C73.5043 35.0374 73.7603 35.4604 74.0911 35.8099C74.4156 36.1661 74.8085 36.4418 75.2422 36.6175C75.7475 36.8213 76.2813 36.9313 76.8208 36.9429C77.5141 36.9762 77.7354 36.9849 79.5006 36.9849C81.2658 36.9849 81.4871 36.9769 82.1805 36.9429C82.72 36.9313 83.2537 36.8213 83.759 36.6175C84.1907 36.4374 84.5827 36.1622 84.9099 35.8095C85.2372 35.4569 85.4925 35.0346 85.6595 34.5696C85.8487 34.0255 85.9509 33.4507 85.9616 32.8697C85.9926 32.1238 86 31.8844 86 29.9845C86 28.0846 85.9926 27.8453 85.961 27.0987C85.9503 26.5177 85.8481 25.9429 85.6589 25.3987C85.4957 24.9317 85.2397 24.5086 84.9089 24.1591C84.5844 23.8029 84.1915 23.5273 83.7578 23.3515C83.2525 23.1477 82.7187 23.0378 82.1792 23.0262C81.4865 22.9929 81.2643 22.9849 79.5 22.9849Z" fill="white"/>
<path d="M79.5 25.9849C78.8078 25.9849 78.1311 26.1901 77.5555 26.5747C76.9799 26.9593 76.5313 27.5059 76.2664 28.1455C76.0015 28.785 75.9322 29.4887 76.0673 30.1677C76.2023 30.8466 76.5356 31.4703 77.0251 31.9597C77.5146 32.4492 78.1383 32.7826 78.8172 32.9176C79.4961 33.0527 80.1999 32.9833 80.8394 32.7184C81.4789 32.4535 82.0256 32.0049 82.4101 31.4294C82.7947 30.8538 83 30.1771 83 29.4849C83 28.5566 82.6313 27.6664 81.9749 27.01C81.3185 26.3536 80.4283 25.9849 79.5 25.9849ZM79.5 31.7567C79.0507 31.7567 78.6114 31.6235 78.2378 31.3739C77.8642 31.1242 77.573 30.7694 77.4011 30.3543C77.2291 29.9391 77.1841 29.4823 77.2718 29.0416C77.3594 28.6009 77.5758 28.1961 77.8935 27.8784C78.2113 27.5607 78.6161 27.3443 79.0568 27.2566C79.4975 27.169 79.9543 27.214 80.3694 27.3859C80.7845 27.5579 81.1394 27.8491 81.389 28.2227C81.6386 28.5963 81.7719 29.0355 81.7719 29.4849C81.7719 30.0874 81.5325 30.6653 81.1065 31.0913C80.6804 31.5174 80.1025 31.7567 79.5 31.7567Z" fill="white"/>
<path d="M83 26.9849C83.5523 26.9849 84 26.5371 84 25.9849C84 25.4326 83.5523 24.9849 83 24.9849C82.4477 24.9849 82 25.4326 82 25.9849C82 26.5371 82.4477 26.9849 83 26.9849Z" fill="white"/>
<path fill-rule="evenodd" clip-rule="evenodd" d="M120 23.4849C116.675 23.4849 114 26.4549 114 30.1466C114 33.0889 115.725 35.587 118.1 36.4752C118.4 36.5308 118.5 36.3365 118.5 36.1421C118.5 35.9756 118.5 35.5592 118.5 35.0041C116.825 35.4205 116.475 34.1159 116.475 34.1159C116.2 33.3387 115.8 33.1444 115.8 33.1444C115.25 32.728 115.85 32.728 115.85 32.728C116.45 32.7835 116.775 33.4219 116.775 33.4219C117.3 34.449 118.175 34.1436 118.525 33.9771C118.575 33.533 118.725 33.2554 118.9 33.0889C117.575 32.9223 116.175 32.3394 116.175 29.7857C116.175 29.0641 116.4 28.4534 116.8 28.0093C116.75 27.8427 116.525 27.1766 116.85 26.2328C116.85 26.2328 117.35 26.0663 118.5 26.9268C118.975 26.788 119.5 26.7047 120 26.7047C120.5 26.7047 121.025 26.788 121.5 26.9268C122.65 26.0663 123.15 26.2328 123.15 26.2328C123.475 27.1488 123.275 27.815 123.2 28.0093C123.575 28.4812 123.825 29.0641 123.825 29.7857C123.825 32.3394 122.425 32.8946 121.075 33.0611C121.3 33.2554 121.475 33.6718 121.475 34.2824C121.475 35.1706 121.475 35.8923 121.475 36.1144C121.475 36.2809 121.575 36.503 121.9 36.4475C124.275 35.587 126 33.0889 126 30.1466C126 26.4549 123.325 23.4849 120 23.4849Z" fill="white"/>
<g clip-path="url(#clip0_2091_7871)">
<path d="M382.712 1.48486H190.288C188.472 1.48486 187 2.94314 187 4.74201V55.2277C187 57.0266 188.472 58.4849 190.288 58.4849H382.712C384.528 58.4849 386 57.0266 386 55.2277V4.74201C386 2.94314 384.528 1.48486 382.712 1.48486Z" stroke="white" stroke-width="2"/>
<path d="M257 16.2751C257 17.4365 256.733 18.4526 256.067 19.1784C255.267 20.0494 254.333 20.4849 253.133 20.4849C251.933 20.4849 251 20.0494 250.2 19.1784C249.4 18.3074 249 17.2913 249 15.9849C249 14.6784 249.4 13.6623 250.2 12.7913C251 11.9204 251.933 11.4849 253.133 11.4849C253.667 11.4849 254.2 11.63 254.733 11.9204C255.267 12.2107 255.667 12.501 255.933 12.9365L255.267 13.6622C254.733 12.9365 254.067 12.6462 253.133 12.6462C252.333 12.6462 251.533 12.9365 251 13.6622C250.333 14.2429 250.067 15.1139 250.067 16.13C250.067 17.1462 250.333 18.0171 251 18.5978C251.667 19.1784 252.333 19.6138 253.133 19.6138C254.067 19.6138 254.733 19.3236 255.4 18.5978C255.8 18.1622 256.067 17.5816 256.067 16.8558H253.133V15.8397H257C257 15.8397 257 15.9849 257 16.2751Z" fill="white" stroke="white" stroke-width="0.2" stroke-miterlimit="10"/>
<path d="M264 12.5516H260.143V15.0849H263.714V16.0182H260.143V18.5516H264V19.4849H259V11.4849H264V12.5516Z" fill="white" stroke="white" stroke-width="0.2" stroke-miterlimit="10"/>
<path d="M269.572 19.4849H268.429V12.4182H266V11.4849H272V12.4182H269.572V19.4849Z" fill="white" stroke="white" stroke-width="0.2" stroke-miterlimit="10"/>
<path d="M276 19.4849V11.4849H277V19.4849H276Z" fill="white" stroke="white" stroke-width="0.2" stroke-miterlimit="10"/>
<path d="M281.658 19.4849H280.488V12.4182H278V11.4849H284V12.4182H281.512V19.4849H281.658Z" fill="white" stroke="white" stroke-width="0.2" stroke-miterlimit="10"/>
<path d="M294.694 19.1784C293.823 20.0494 292.806 20.4849 291.5 20.4849C290.194 20.4849 289.178 20.0494 288.306 19.1784C287.436 18.3074 287 17.2913 287 15.9849C287 14.6784 287.436 13.6623 288.306 12.7913C289.178 11.9204 290.194 11.4849 291.5 11.4849C292.806 11.4849 293.823 11.9204 294.694 12.7913C295.564 13.6623 296 14.6784 296 15.9849C296 17.1462 295.564 18.3074 294.694 19.1784ZM289.178 18.4526C289.759 19.0333 290.629 19.4687 291.5 19.4687C292.372 19.4687 293.242 19.1784 293.823 18.4526C294.404 17.872 294.839 17.001 294.839 15.9849C294.839 14.9687 294.549 14.0978 293.823 13.5171C293.242 12.9365 292.372 12.501 291.5 12.501C290.629 12.501 289.759 12.7913 289.178 13.5171C288.597 14.0978 288.161 14.9687 288.161 15.9849C288.161 16.8558 288.452 17.7268 289.178 18.4526Z" fill="white" stroke="white" stroke-width="0.2" stroke-miterlimit="10"/>
<path d="M298 19.4849V11.4849H299.174L302.956 17.7515V16.1516V11.4849H304V19.4849H302.956L298.913 12.9516V14.5515V19.4849H298Z" fill="white" stroke="white" stroke-width="0.2" stroke-miterlimit="10"/>
<path d="M287.298 32.1594C283.894 32.1594 281.199 34.7156 281.199 38.266C281.199 41.6742 283.894 44.3724 287.298 44.3724C290.702 44.3724 293.397 41.8162 293.397 38.266C293.397 34.7156 290.702 32.1594 287.298 32.1594ZM287.298 41.8162C285.454 41.8162 283.894 40.2541 283.894 38.124C283.894 35.9937 285.454 34.4316 287.298 34.4316C289.142 34.4316 290.702 35.8517 290.702 38.124C290.702 40.3961 289.142 41.8162 287.298 41.8162ZM274.106 32.1594C270.702 32.1594 268.007 34.7156 268.007 38.266C268.007 41.6742 270.702 44.3724 274.106 44.3724C277.511 44.3724 280.206 41.8162 280.206 38.266C280.206 34.7156 277.511 32.1594 274.106 32.1594ZM274.106 41.8162C272.263 41.8162 270.702 40.2541 270.702 38.124C270.702 35.9937 272.263 34.4316 274.106 34.4316C275.95 34.4316 277.511 35.8517 277.511 38.124C277.511 40.3961 275.95 41.8162 274.106 41.8162ZM258.362 34.0056V36.5618H264.461C264.319 37.982 263.752 39.118 263.043 39.828C262.192 40.6801 260.773 41.6742 258.362 41.6742C254.532 41.6742 251.695 38.6919 251.695 34.8577C251.695 31.0234 254.674 28.0411 258.362 28.0411C260.348 28.0411 261.908 28.8931 263.043 29.8872L264.887 28.0411C263.326 26.621 261.34 25.4849 258.504 25.4849C253.397 25.4849 249 29.7453 249 34.8577C249 39.97 253.397 44.2304 258.504 44.2304C261.34 44.2304 263.326 43.3784 265.028 41.5322C266.731 39.828 267.298 37.4138 267.298 35.5677C267.298 34.9997 267.298 34.4316 267.156 34.0056H258.362ZM322.759 35.9937C322.192 34.5736 320.773 32.1594 317.653 32.1594C314.532 32.1594 311.979 34.5736 311.979 38.266C311.979 41.6742 314.532 44.3724 317.936 44.3724C320.631 44.3724 322.333 42.6683 322.901 41.6742L320.915 40.2541C320.206 41.2482 319.354 41.9582 317.936 41.9582C316.518 41.9582 315.666 41.3902 314.957 40.1121L323.043 36.7038L322.759 35.9937ZM314.532 37.982C314.532 35.7097 316.376 34.4316 317.653 34.4316C318.645 34.4316 319.639 34.9997 319.922 35.7097L314.532 37.982ZM307.865 43.8044H310.56V26.0529H307.865V43.8044ZM303.61 33.4375C302.9 32.7275 301.766 32.0174 300.347 32.0174C297.369 32.0174 294.532 34.7156 294.532 38.124C294.532 41.5322 297.227 44.0884 300.347 44.0884C301.766 44.0884 302.9 43.3784 303.468 42.6683H303.61V43.5204C303.61 45.7925 302.334 47.0706 300.347 47.0706C298.787 47.0706 297.652 45.9346 297.369 44.9405L295.099 45.9346C295.808 47.4967 297.511 49.4849 300.49 49.4849C303.61 49.4849 306.163 47.6387 306.163 43.2364V32.4435H303.61V33.4375ZM300.49 41.8162C298.646 41.8162 297.085 40.2541 297.085 38.124C297.085 35.9937 298.646 34.4316 300.49 34.4316C302.334 34.4316 303.752 35.9937 303.752 38.124C303.752 40.2541 302.334 41.8162 300.49 41.8162ZM335.099 26.0529H328.716V43.8044H331.411V37.1298H335.099C338.078 37.1298 340.915 34.9997 340.915 31.5914C340.915 28.1831 338.078 26.0529 335.099 26.0529ZM335.241 34.7156H331.411V28.6091H335.241C337.227 28.6091 338.362 30.3133 338.362 31.5914C338.22 33.0115 337.085 34.7156 335.241 34.7156ZM351.553 32.1594C349.567 32.1594 347.581 33.0115 346.872 34.8577L349.284 35.8517C349.851 34.8577 350.702 34.5736 351.695 34.5736C353.113 34.5736 354.39 35.4257 354.532 36.8458V36.9878C354.107 36.7038 352.972 36.2778 351.837 36.2778C349.284 36.2778 346.73 37.6979 346.73 40.2541C346.73 42.6683 348.858 44.2304 351.128 44.2304C352.972 44.2304 353.822 43.3784 354.532 42.5263H354.673V43.9464H357.226V37.1298C356.943 33.8636 354.532 32.1594 351.553 32.1594ZM351.269 41.8162C350.419 41.8162 349.142 41.3902 349.142 40.2541C349.142 38.834 350.702 38.4079 351.978 38.4079C353.113 38.4079 353.681 38.692 354.39 38.976C354.107 40.6802 352.688 41.8162 351.269 41.8162ZM366.163 32.4435L363.184 40.1121H363.043L359.922 32.4435H357.085L361.766 43.2364L359.071 49.2009H361.766L369 32.4435H366.163ZM342.333 43.8044H345.028V26.0529H342.333V43.8044Z" fill="white"/>
<path d="M204.851 47.4849C204.284 47.2014 204 46.4928 204 45.7841C204 45.6423 204 45.3589 204 45.2172C204 34.729 204 24.2407 204 13.8943C204 13.3273 204.142 12.9022 204.284 12.3352C204.425 12.0517 204.709 11.7683 204.993 11.4849C211.09 17.5793 217.045 23.6738 223 29.7683C216.903 35.4376 210.948 41.3904 204.851 47.4849Z" fill="white"/>
<path d="M229 23.4123C227.329 25.0575 225.519 26.7026 223.848 28.4849C218.278 22.8639 212.57 17.2429 207 11.6219C207 11.6219 207 11.4849 207.139 11.4849C214.38 15.4606 221.62 19.4365 229 23.4123Z" fill="white"/>
<path d="M207 47.4849C212.605 41.8182 218.35 36.1516 223.955 30.4849C225.497 32.0432 227.178 33.6015 229 35.3015C221.713 39.4099 214.427 43.5182 207.14 47.4849H207Z" fill="white"/>
<path d="M229.37 34.4849C227.533 32.7249 225.837 30.9649 224 29.2049C225.837 27.2982 227.674 25.3915 229.511 23.4849C230.076 23.7782 230.641 24.0715 231.207 24.5115C232.62 25.3916 234.174 26.1249 235.587 27.0049C236.011 27.1515 236.294 27.4449 236.576 27.8848C237.141 28.6182 237.141 29.3516 236.576 30.0849C236.294 30.3782 236.011 30.6716 235.587 30.8182C233.609 32.1382 231.489 33.3116 229.37 34.4849Z" fill="white"/>
</g>
<g clip-path="url(#clip1_2091_7871)">
<path d="M595.712 1.48486H403.288C401.472 1.48486 400 2.94314 400 4.74201V55.2277C400 57.0266 401.472 58.4849 403.288 58.4849H595.712C597.528 58.4849 599 57.0266 599 55.2277V4.74201C599 2.94314 597.528 1.48486 595.712 1.48486Z" stroke="white" stroke-width="2"/>
<path d="M446.221 28.6259C446.184 24.0805 449.907 21.8649 450.08 21.7659C447.97 18.6594 444.699 18.2331 443.545 18.2026C440.794 17.9133 438.134 19.8625 436.732 19.8625C435.307 19.8625 433.151 18.2331 430.822 18.2788C427.83 18.3244 425.034 20.0756 423.504 22.7862C420.338 28.3214 422.697 36.4528 425.735 40.9298C427.25 43.1225 429.021 45.5666 431.343 45.4828C433.611 45.3914 434.463 44.0209 437.199 44.0209C439.913 44.0209 440.711 45.4828 443.078 45.4295C445.513 45.3914 447.05 43.2291 448.513 41.0211C450.269 38.5086 450.97 36.0341 451 35.9123C450.94 35.8742 446.267 34.0698 446.221 28.6259ZM441.752 15.2561C442.973 13.7105 443.809 11.6167 443.576 9.48486C441.812 9.56096 439.596 10.7183 438.33 12.2258C437.207 13.5582 436.197 15.7357 436.46 17.7839C438.435 17.9285 440.478 16.7712 441.752 15.2561Z" fill="white"/>
<path d="M479.788 45.1159H476.597L474.846 39.7246H468.775L467.107 45.1159H464L470.018 26.7529H473.732L479.788 45.1159ZM474.323 37.4609L472.739 32.6654C472.572 32.1739 472.254 31.0197 471.799 29.2028H471.746C471.564 29.9847 471.261 31.1389 470.859 32.6654L469.306 37.4609H474.323ZM495.235 38.3322C495.235 40.581 494.613 42.3607 493.37 43.6713C492.255 44.833 490.868 45.4138 489.216 45.4138C487.427 45.4138 486.147 44.7883 485.366 43.5373V50.4849H482.372V36.2248C482.372 34.81 482.335 33.3579 482.259 31.8761H484.896L485.063 33.976H485.115C486.116 32.3974 487.632 31.6005 489.663 31.6005C491.255 31.6005 492.581 32.2186 493.643 33.4547C494.703 34.6909 495.235 36.3216 495.235 38.3322ZM492.187 38.4438C492.187 37.1557 491.891 36.0908 491.301 35.2568C490.656 34.3855 489.785 33.9536 488.693 33.9536C487.958 33.9536 487.283 34.1994 486.684 34.6759C486.086 35.16 485.692 35.793 485.51 36.5673C485.427 36.8578 485.381 37.163 485.374 37.4609V39.6725C485.374 40.6332 485.677 41.4448 486.276 42.115C486.874 42.7777 487.655 43.1128 488.617 43.1128C489.746 43.1128 490.626 42.6809 491.255 41.8321C491.869 40.9683 492.187 39.8438 492.187 38.4438ZM510.741 38.3322C510.741 40.581 510.12 42.3607 508.876 43.6713C507.763 44.833 506.376 45.4138 504.724 45.4138C502.935 45.4138 501.653 44.7883 500.873 43.5373V50.4849H497.879V36.2248C497.879 34.81 497.841 33.3579 497.765 31.8761H500.403L500.57 33.976H500.623C501.623 32.3974 503.139 31.6005 505.171 31.6005C506.762 31.6005 508.089 32.2186 509.149 33.4547C510.204 34.6909 510.741 36.3216 510.741 38.3322ZM507.687 38.4438C507.687 37.1557 507.392 36.0908 506.8 35.2568C506.156 34.3855 505.284 33.9536 504.193 33.9536C503.458 33.9536 502.783 34.1994 502.176 34.6759C501.578 35.16 501.184 35.793 501.002 36.5673C500.911 36.9322 500.858 37.2301 500.858 37.4609V39.6725C500.858 40.6332 501.161 41.4448 501.76 42.115C502.359 42.7777 503.139 43.1128 504.11 43.1128C505.238 43.1128 506.118 42.6809 506.747 41.8321C507.376 40.9683 507.687 39.8438 507.687 38.4438ZM528.075 39.9704C528.075 41.5342 527.522 42.8075 526.415 43.783C525.203 44.8553 523.497 45.3914 521.322 45.3914C519.313 45.3914 517.699 45.0117 516.479 44.2446L517.168 41.7948C518.48 42.5618 519.927 42.9415 521.496 42.9415C522.625 42.9415 523.505 42.6884 524.134 42.1894C524.763 41.6905 525.081 41.0204 525.081 40.1864C525.081 39.4417 524.816 38.8162 524.301 38.3024C523.785 37.796 522.929 37.3194 521.724 36.8876C518.45 35.6887 516.812 33.9313 516.812 31.6304C516.812 30.1261 517.388 28.8901 518.548 27.9294C519.7 26.9688 521.231 26.4849 523.141 26.4849C524.839 26.4849 526.256 26.7753 527.385 27.356L526.635 29.7539C525.574 29.1879 524.384 28.9124 523.042 28.9124C521.989 28.9124 521.155 29.1655 520.564 29.6719C520.064 30.1261 519.813 30.6772 519.813 31.3325C519.813 32.0548 520.102 32.658 520.678 33.1271C521.178 33.559 522.08 34.0356 523.391 34.5419C524.998 35.1823 526.18 35.9195 526.938 36.7759C527.696 37.6322 528.075 38.6971 528.075 39.9704ZM538.004 34.0877H534.699V40.514C534.699 42.1522 535.283 42.9639 536.45 42.9639C536.988 42.9639 537.428 42.9192 537.784 42.8299L537.867 45.0638C537.277 45.2798 536.503 45.3914 535.541 45.3914C534.358 45.3914 533.433 45.034 532.767 44.3266C532.1 43.6191 531.766 42.4277 531.766 40.7598V34.0877H529.803V31.8835H531.766V29.456L534.707 28.5847V31.8835H538.011L538.004 34.0877ZM552.867 38.3917C552.867 40.4246 552.276 42.1001 551.093 43.4033C549.858 44.751 548.214 45.4212 546.159 45.4212C544.181 45.4212 542.604 44.7734 541.429 43.4926C540.255 42.2043 539.672 40.5736 539.672 38.6152C539.672 36.5599 540.278 34.8844 541.491 33.5739C542.703 32.2633 544.333 31.6154 546.386 31.6154C548.365 31.6154 549.957 32.2633 551.154 33.5515C552.29 34.7951 552.867 36.411 552.867 38.3917ZM549.76 38.4588C549.76 37.245 549.494 36.2025 548.956 35.3387C548.327 34.2887 547.432 33.76 546.265 33.76C545.067 33.76 544.143 34.2887 543.521 35.3387C542.984 36.2099 542.718 37.2673 542.718 38.5183C542.718 39.7321 542.984 40.7746 543.521 41.6459C544.166 42.6958 545.076 43.2245 546.243 43.2245C547.387 43.2245 548.281 42.6884 548.933 41.6236C549.487 40.7225 549.76 39.6725 549.76 38.4588ZM562.606 34.4674C562.295 34.4153 561.977 34.3856 561.659 34.3856C560.605 34.3856 559.795 34.7728 559.218 35.5547C558.718 36.2471 558.468 37.1184 558.468 38.1684V45.1159H555.474V36.0461C555.474 34.6536 555.451 33.2685 555.391 31.8761H557.998L558.104 34.4079H558.187C558.506 33.5366 558.999 32.8367 559.688 32.308C560.309 31.8463 561.075 31.6005 561.855 31.6005C562.137 31.6005 562.378 31.6229 562.606 31.6527V34.4674ZM575.999 37.8705C576.006 38.3173 575.968 38.7641 575.893 39.2034H566.904C566.934 40.514 567.374 41.5118 568.207 42.2043C568.965 42.8224 569.943 43.1277 571.148 43.1277C572.482 43.1277 573.695 42.9192 574.786 42.5022L575.256 44.5425C573.982 45.0861 572.475 45.3617 570.739 45.3617C568.647 45.3617 567.009 44.7585 565.812 43.5522C564.622 42.3458 564.023 40.7225 564.023 38.6896C564.023 36.6939 564.577 35.0334 565.691 33.7079C566.851 32.2931 568.427 31.5857 570.406 31.5857C572.346 31.5857 573.816 32.2931 574.817 33.7079C575.597 34.8323 575.999 36.2174 575.999 37.8705ZM573.141 37.1109C573.164 36.2398 572.967 35.4876 572.558 34.8472C572.042 34.0281 571.239 33.6186 570.17 33.6186C569.193 33.6186 568.397 34.0207 567.782 34.8174C567.282 35.4504 566.987 36.2174 566.896 37.1035L573.141 37.1109Z" fill="white"/>
<path d="M468.154 19.4154C467.32 19.4154 466.599 19.3768 466 19.3073V10.095C466.842 9.96367 467.692 9.89415 468.541 9.90189C471.978 9.90189 473.563 11.6239 473.563 14.427C473.556 17.6625 471.689 19.4154 468.154 19.4154ZM468.663 11.0834C468.2 11.0834 467.805 11.1143 467.479 11.1837V18.1799C467.654 18.2108 467.995 18.2185 468.473 18.2185C470.726 18.2185 472.008 16.9135 472.008 14.4733C472 12.288 470.84 11.0834 468.663 11.0834ZM478.494 19.4849C476.56 19.4849 475.3 18.01 475.3 16.01C475.3 13.925 476.582 12.4425 478.6 12.4425C480.512 12.4425 481.794 13.8478 481.794 15.9018C481.794 18.01 480.474 19.4849 478.494 19.4849ZM478.547 13.5389C477.485 13.5389 476.802 14.5505 476.802 15.9714C476.802 17.3613 477.5 18.3729 478.532 18.3729C479.571 18.3729 480.262 17.2918 480.262 15.9405C480.269 14.566 479.586 13.5389 478.547 13.5389ZM492.839 12.5814L490.768 19.3304H489.418L488.561 16.4038C488.348 15.6856 488.166 14.9598 488.03 14.2262H487.999C487.893 14.9598 487.688 15.7011 487.468 16.4038L486.558 19.3304H485.192L483.243 12.5814H484.76L485.511 15.786C485.686 16.5505 485.837 17.2687 485.959 17.9559H485.989C486.095 17.3845 486.277 16.6818 486.535 15.8015L487.476 12.5814H488.674L489.577 15.732C489.797 16.4965 489.971 17.2455 490.108 17.9559H490.146C490.245 17.2609 490.389 16.5273 490.594 15.732L491.398 12.5814H492.839ZM500.478 19.3304H499.007V15.454C499.007 14.2571 498.558 13.6625 497.671 13.6625C496.799 13.6625 496.2 14.427 496.2 15.315V19.3304H494.728V14.5119C494.728 13.9173 494.713 13.2764 494.675 12.5814H495.972L496.04 13.6239H496.078C496.473 12.9058 497.277 12.4425 498.18 12.4425C499.568 12.4425 500.485 13.5235 500.485 15.2918L500.478 19.3304ZM504.536 19.3304H503.065V9.48486H504.536V19.3304ZM509.915 19.4849C507.981 19.4849 506.721 18.01 506.721 16.01C506.721 13.925 508.003 12.4425 510.021 12.4425C511.933 12.4425 513.215 13.8478 513.215 15.9018C513.215 18.01 511.888 19.4849 509.915 19.4849ZM509.968 13.5389C508.906 13.5389 508.223 14.5505 508.223 15.9714C508.223 17.3613 508.921 18.3729 509.952 18.3729C510.992 18.3729 511.682 17.2918 511.682 15.9405C511.682 14.566 511.008 13.5389 509.968 13.5389ZM519.025 19.3304L518.919 18.5505H518.881C518.434 19.176 517.774 19.4771 516.94 19.4771C515.748 19.4771 514.906 18.6277 514.906 17.4926C514.906 15.8247 516.325 14.9675 518.782 14.9675V14.844C518.782 13.9559 518.32 13.5081 517.41 13.5081C516.757 13.5081 516.181 13.678 515.68 14.01L515.384 13.0216C515.999 12.6354 516.765 12.4347 517.66 12.4347C519.389 12.4347 520.269 13.3614 520.269 15.2223V17.7088C520.269 18.3884 520.3 18.9211 520.368 19.3227L519.025 19.3304ZM518.821 15.9714C517.182 15.9714 516.363 16.3729 516.363 17.3304C516.363 18.0409 516.788 18.3884 517.372 18.3884C518.123 18.3884 518.821 17.8092 518.821 17.0138V15.9714ZM527.408 19.3304L527.34 18.2493H527.302C526.877 19.0679 526.164 19.4849 525.17 19.4849C523.57 19.4849 522.386 18.0564 522.386 16.0409C522.386 13.9327 523.615 12.4425 525.291 12.4425C526.179 12.4425 526.808 12.7436 527.158 13.3614H527.188V9.48486H528.659V17.508C528.659 18.1567 528.675 18.7744 528.712 19.3227H527.408V19.3304ZM527.195 15.3613C527.195 14.4192 526.581 13.6085 525.64 13.6085C524.548 13.6085 523.88 14.5969 523.88 15.9791C523.88 17.3382 524.571 18.2726 525.61 18.2726C526.535 18.2726 527.195 17.454 527.195 16.4811V15.3613ZM538.021 19.4849C536.087 19.4849 534.827 18.01 534.827 16.01C534.827 13.925 536.109 12.4425 538.127 12.4425C540.039 12.4425 541.32 13.8478 541.32 15.9018C541.32 18.01 540.001 19.4849 538.021 19.4849ZM538.074 13.5389C537.012 13.5389 536.329 14.5505 536.329 15.9714C536.329 17.3613 537.027 18.3729 538.059 18.3729C539.098 18.3729 539.788 17.2918 539.788 15.9405C539.796 14.566 539.113 13.5389 538.074 13.5389ZM549.248 19.3304H547.776V15.454C547.776 14.2571 547.329 13.6625 546.441 13.6625C545.568 13.6625 544.97 14.427 544.97 15.315V19.3304H543.498V14.5119C543.498 13.9173 543.483 13.2764 543.444 12.5814H544.742L544.81 13.6239H544.848C545.243 12.9058 546.047 12.4425 546.949 12.4425C548.338 12.4425 549.255 13.5235 549.255 15.2918V19.3304H549.248ZM559.155 13.7088H557.532V16.9829C557.532 17.8169 557.812 18.2339 558.389 18.2339C558.646 18.2339 558.867 18.203 559.042 18.1644L559.079 19.2995C558.791 19.4077 558.412 19.4695 557.934 19.4695C556.773 19.4695 556.075 18.8208 556.075 17.1065V13.7011H555.104V12.5737H556.075V11.3381L557.524 10.8903V12.5737H559.148L559.155 13.7088ZM566.961 19.3304H565.489V15.4849C565.489 14.2803 565.042 13.6702 564.154 13.6702C563.388 13.6702 562.683 14.1953 562.683 15.2687V19.3382H561.211V9.48486H562.683V13.5389H562.713C563.176 12.8054 563.851 12.4425 564.708 12.4425C566.111 12.4425 566.969 13.5543 566.969 15.315L566.961 19.3304ZM574.949 16.3189H570.526C570.557 17.593 571.384 18.3189 572.613 18.3189C573.265 18.3189 573.872 18.2108 574.402 18.0022L574.631 19.0447C574.001 19.3227 573.265 19.4617 572.408 19.4617C570.337 19.4617 569.108 18.1258 569.108 16.064C569.108 13.9945 570.367 12.4425 572.241 12.4425C573.932 12.4425 574.994 13.7165 574.994 15.6471C575.009 15.8633 574.994 16.0949 574.949 16.3189ZM573.598 15.2455C573.598 14.203 573.083 13.4694 572.143 13.4694C571.293 13.4694 570.625 14.2185 570.534 15.2455H573.598Z" fill="white"/>
</g>
<defs>
<clipPath id="clip0_2091_7871">
<rect width="201" height="59" fill="white" transform="translate(186 0.484863)"/>
</clipPath>
<clipPath id="clip1_2091_7871">
<rect width="201" height="59" fill="white" transform="translate(399 0.484863)"/>
</clipPath>
</defs>
</svg>
