<svg width="20" height="20" viewBox="0 0 20 20" fill="none" xmlns="http://www.w3.org/2000/svg">
<path d="M10 11.6665C9.76389 11.6665 9.56583 11.5865 9.40583 11.4265C9.24583 11.2665 9.16611 11.0687 9.16667 10.8332C9.16667 10.5971 9.24667 10.399 9.40667 10.239C9.56667 10.079 9.76445 9.99928 10 9.99984C10.2361 9.99984 10.4342 10.0798 10.5942 10.2398C10.7542 10.3998 10.8339 10.5976 10.8333 10.8332C10.8333 11.0693 10.7533 11.2673 10.5933 11.4273C10.4333 11.5873 10.2356 11.6671 10 11.6665ZM6.66667 11.6665C6.43056 11.6665 6.2325 11.5865 6.0725 11.4265C5.9125 11.2665 5.83278 11.0687 5.83333 10.8332C5.83333 10.5971 5.91333 10.399 6.07333 10.239C6.23334 10.079 6.43111 9.99928 6.66667 9.99984C6.90278 9.99984 7.10083 10.0798 7.26084 10.2398C7.42084 10.3998 7.50056 10.5976 7.5 10.8332C7.5 11.0693 7.42 11.2673 7.26 11.4273C7.1 11.5873 6.90222 11.6671 6.66667 11.6665ZM13.3333 11.6665C13.0972 11.6665 12.8992 11.5865 12.7392 11.4265C12.5792 11.2665 12.4994 11.0687 12.5 10.8332C12.5 10.5971 12.58 10.399 12.74 10.239C12.9 10.079 13.0978 9.99928 13.3333 9.99984C13.5694 9.99984 13.7675 10.0798 13.9275 10.2398C14.0875 10.3998 14.1672 10.5976 14.1667 10.8332C14.1667 11.0693 14.0867 11.2673 13.9267 11.4273C13.7667 11.5873 13.5689 11.6671 13.3333 11.6665ZM10 14.9998C9.76389 14.9998 9.56583 14.9198 9.40583 14.7598C9.24583 14.5998 9.16611 14.4021 9.16667 14.1665C9.16667 13.9304 9.24667 13.7323 9.40667 13.5723C9.56667 13.4123 9.76445 13.3326 10 13.3332C10.2361 13.3332 10.4342 13.4132 10.5942 13.5732C10.7542 13.7332 10.8339 13.9309 10.8333 14.1665C10.8333 14.4026 10.7533 14.6007 10.5933 14.7607C10.4333 14.9207 10.2356 15.0004 10 14.9998ZM6.66667 14.9998C6.43056 14.9998 6.2325 14.9198 6.0725 14.7598C5.9125 14.5998 5.83278 14.4021 5.83333 14.1665C5.83333 13.9304 5.91333 13.7323 6.07333 13.5723C6.23334 13.4123 6.43111 13.3326 6.66667 13.3332C6.90278 13.3332 7.10083 13.4132 7.26084 13.5732C7.42084 13.7332 7.50056 13.9309 7.5 14.1665C7.5 14.4026 7.42 14.6007 7.26 14.7607C7.1 14.9207 6.90222 15.0004 6.66667 14.9998ZM13.3333 14.9998C13.0972 14.9998 12.8992 14.9198 12.7392 14.7598C12.5792 14.5998 12.4994 14.4021 12.5 14.1665C12.5 13.9304 12.58 13.7323 12.74 13.5723C12.9 13.4123 13.0978 13.3326 13.3333 13.3332C13.5694 13.3332 13.7675 13.4132 13.9275 13.5732C14.0875 13.7332 14.1672 13.9309 14.1667 14.1665C14.1667 14.4026 14.0867 14.6007 13.9267 14.7607C13.7667 14.9207 13.5689 15.0004 13.3333 14.9998ZM4.16667 18.3332C3.70833 18.3332 3.31583 18.1698 2.98917 17.8432C2.6625 17.5165 2.49945 17.1243 2.5 16.6665V4.99984C2.5 4.5415 2.66333 4.149 2.99 3.82234C3.31667 3.49567 3.70889 3.33262 4.16667 3.33317H5V1.6665H6.66667V3.33317H13.3333V1.6665H15V3.33317H15.8333C16.2917 3.33317 16.6842 3.4965 17.0108 3.82317C17.3375 4.14984 17.5006 4.54206 17.5 4.99984V16.6665C17.5 17.1248 17.3367 17.5173 17.01 17.844C16.6833 18.1707 16.2911 18.3337 15.8333 18.3332H4.16667ZM4.16667 16.6665H15.8333V8.33317H4.16667V16.6665Z" fill="#222222"/>
</svg>
