<svg width="20" height="20" viewBox="0 0 20 20" fill="none" xmlns="http://www.w3.org/2000/svg">
<path d="M10.0001 12.4793C9.88897 12.4793 9.78119 12.4585 9.67675 12.4168C9.5723 12.3752 9.48564 12.3196 9.41675 12.2502L5.58341 8.41683C5.43064 8.26405 5.35425 8.06961 5.35425 7.8335C5.35425 7.59738 5.43064 7.40294 5.58341 7.25016C5.73619 7.09738 5.93064 7.021 6.16675 7.021C6.40286 7.021 6.5973 7.09738 6.75008 7.25016L10.0001 10.5002L13.2501 7.25016C13.4029 7.09738 13.5973 7.021 13.8334 7.021C14.0695 7.021 14.264 7.09738 14.4167 7.25016C14.5695 7.40294 14.6459 7.59738 14.6459 7.8335C14.6459 8.06961 14.5695 8.26405 14.4167 8.41683L10.5834 12.2502C10.5001 12.3335 10.4098 12.3927 10.3126 12.4277C10.2154 12.4627 10.1112 12.4799 10.0001 12.4793Z" fill="#222222"/>
</svg>
